<!-- by TradingView --><svg width="56" height="56" viewBox="0 0 56 56" xmlns="http://www.w3.org/2000/svg"><path d="m26.03 13.66-.22.13a4.86 4.86 0 0 0-1.7 6.59l9.84 17.11a4.7 4.7 0 0 0 6.49 1.73l.21-.12a4.86 4.86 0 0 0 1.7-6.6L32.51 15.4a4.7 4.7 0 0 0-6.48-1.73Z" fill="#C00310"/><path d="M31.82 39.28c-.27.48-.76.72-1.48.72l-9.04-.02c-1.28 0-2.2-.07-2.74-.22a7.54 7.54 0 0 1-2.2-13.53 7.2 7.2 0 0 1 6.32-.76c1.1.38 2.09 1 2.94 1.86.4.4.91 1.18 1.55 2.31l4.53 7.98c.35.62.4 1.18.12 1.66Z" fill="#F22E19"/></svg>